<svg id="visual" viewBox="0 0 960 540" width="960" height="540" xmlns="http://www.w3.org/2000/svg" xmlns:xlink="http://www.w3.org/1999/xlink" version="1.1"><rect x="0" y="0" width="960" height="540" fill="#D5DAEC"></rect><path d="M0 164L20 163.2C40 162.3 80 160.7 120 150.2C160 139.7 200 120.3 240 100.3C280 80.3 320 59.7 360 65.3C400 71 440 103 480 107.2C520 111.3 560 87.7 600 105C640 122.3 680 180.7 720 179.2C760 177.7 800 116.3 840 99.8C880 83.3 920 111.7 940 125.8L960 140L960 0L940 0C920 0 880 0 840 0C800 0 760 0 720 0C680 0 640 0 600 0C560 0 520 0 480 0C440 0 400 0 360 0C320 0 280 0 240 0C200 0 160 0 120 0C80 0 40 0 20 0L0 0Z" fill="#0F4CDB" stroke-linecap="round" stroke-linejoin="miter"></path></svg>